<svg xmlns="http://www.w3.org/2000/svg" width="170" height="170" viewBox="0 0 170 170">
  <g id="Group_159" data-name="Group 159" transform="translate(-497 -575)">
    <rect id="Rectangle_153" data-name="Rectangle 153" width="170" height="170" rx="25" transform="translate(497 575)" fill="#28629f"/>
    <path id="Path_53" data-name="Path 53" d="M90.986,54.365V41.011a2.516,2.516,0,0,1-.331-1.214,36.97,36.97,0,0,0-73.5-.11,3.921,3.921,0,0,0-.221,1.1V54.254A4.663,4.663,0,0,0,12.3,58.89V71.581a4.663,4.663,0,0,0,4.635,4.635h.221a3.725,3.725,0,0,0,3.531,2.428h0V94.536l9.27,6.29H47.836a3.6,3.6,0,0,0,2.869,1.545H57a3.421,3.421,0,0,0,0-6.842H50.7a3.6,3.6,0,0,0-2.869,1.545H31.171L24.55,92.549V86.038a5.993,5.993,0,0,0,4.3,1.876h2.428a6.006,6.006,0,0,0,5.959-5.959V49.509a6.006,6.006,0,0,0-5.959-5.959H28.854a5.742,5.742,0,0,0-4.194,1.876V43.55a29.356,29.356,0,0,1,58.711,0v1.876a5.742,5.742,0,0,0-4.194-1.876H76.75a6.006,6.006,0,0,0-5.959,5.959V81.955a6.006,6.006,0,0,0,5.959,5.959h2.428a6.006,6.006,0,0,0,5.959-5.959V77.982a4.349,4.349,0,0,0,2.207.662,3.725,3.725,0,0,0,3.531-2.428h.11a4.663,4.663,0,0,0,4.635-4.635V58.89A4.879,4.879,0,0,0,90.986,54.365Z" transform="translate(527.7 605.2)" fill="#fff"/>
  </g>
</svg>
