<svg xmlns="http://www.w3.org/2000/svg" width="122.881" height="140.947" viewBox="0 0 122.881 140.947">
  <path id="Path_36" data-name="Path 36" d="M128.345,76.948V57.254a3.71,3.71,0,0,1-.488-1.79,54.522,54.522,0,0,0-108.4-.163,5.783,5.783,0,0,0-.326,1.628V76.785A6.877,6.877,0,0,0,12.3,83.621v18.717a6.877,6.877,0,0,0,6.836,6.836h.326a5.494,5.494,0,0,0,5.208,3.581h0v23.437l13.672,9.277H64.707a5.311,5.311,0,0,0,4.232,2.279h9.277a5.045,5.045,0,1,0,0-10.091H68.939a5.311,5.311,0,0,0-4.232,2.279H40.131l-9.765-6.673v-9.6a8.839,8.839,0,0,0,6.348,2.767h3.581a8.857,8.857,0,0,0,8.789-8.789V69.787A8.857,8.857,0,0,0,40.294,61H36.713a8.469,8.469,0,0,0-6.185,2.767V61a43.293,43.293,0,1,1,86.586,0v2.767A8.469,8.469,0,0,0,110.93,61H107.35a8.857,8.857,0,0,0-8.789,8.789v47.85a8.857,8.857,0,0,0,8.789,8.789h3.581a8.857,8.857,0,0,0,8.789-8.789v-5.859a6.414,6.414,0,0,0,3.255.977,5.494,5.494,0,0,0,5.208-3.581h.163a6.877,6.877,0,0,0,6.836-6.836V83.621A7.2,7.2,0,0,0,128.345,76.948Z" transform="translate(-12.3 -6.8)" fill="#26609e"/>
</svg>
